<?xml version="1.0" encoding="iso-8859-1"?>
<!-- Generator: Adobe Illustrator 19.0.0, SVG Export Plug-In . SVG Version: 6.00 Build 0)  -->
<svg version="1.1" id="Capa_1" xmlns="http://www.w3.org/2000/svg" xmlns:xlink="http://www.w3.org/1999/xlink" x="0px" y="0px"
	 viewBox="0 0 511.987 511.987" style="enable-background:new 0 0 511.987 511.987;" xml:space="preserve">
<g>
	<g>
		<path d="M473.964,38.02c-50.697-50.697-133.208-50.689-183.905,0L164.037,164.034c-50.706,50.706-50.706,133.208,0,183.905
			c23.459,23.459,60.443,38.034,96.522,38.034c4.71,0,8.533-3.814,8.533-8.533c0-4.719-3.823-8.534-8.533-8.534
			c-31.71,0-64.069-12.655-84.447-33.033c-44.05-44.05-44.05-115.722,0-159.772L302.134,50.078
			c44.05-44.058,115.722-44.041,159.772,0c44.05,44.05,44.05,115.731,0,159.781L335.884,335.873c-3.337,3.337-3.337,8.73,0,12.066
			c3.337,3.337,8.73,3.337,12.066,0l126.014-126.005C524.662,171.219,524.662,88.718,473.964,38.02z"/>
	</g>
</g>
<g>
	<g>
		<path d="M451.06,60.924c-38.068-38.068-100.021-38.068-138.089,0L186.958,186.938c-38.068,38.068-38.068,100.021,0,138.089
			c19.03,19.038,44.033,28.553,69.036,28.553c25.003,0,50.006-9.515,69.044-28.544c3.337-3.337,3.337-8.73,0-12.066
			c-3.337-3.337-8.73-3.337-12.066,0c-31.412,31.412-82.536,31.412-113.948,0c-31.412-31.42-31.412-82.536,0-113.956L325.038,72.991
			c31.42-31.412,82.536-31.412,113.956,0c15.147,15.155,23.493,35.38,23.493,56.978c0,21.598-8.346,41.831-23.493,56.978
			L371.341,254.6c-3.337,3.337-3.337,8.73,0,12.066c3.337,3.337,8.73,3.337,12.066,0l67.653-67.653
			c18.373-18.373,28.493-42.889,28.493-69.044S469.433,79.297,451.06,60.924z"/>
	</g>
</g>
<g>
	<g>
		<path d="M347.959,164.034c-23.458-23.459-60.443-38.034-96.522-38.034c-4.71,0-8.533,3.814-8.533,8.533s3.823,8.534,8.533,8.534
			c31.71,0,64.069,12.655,84.447,33.033c44.05,44.05,44.05,115.722,0,159.772L209.87,461.895
			c-44.058,44.041-115.731,44.041-159.781,0c-44.05-44.05-44.05-115.731,0-159.781l126.022-126.014c3.337-3.337,3.337-8.73,0-12.066
			c-3.337-3.337-8.73-3.337-12.066,0L38.023,290.048c-50.697,50.714-50.697,133.216,0,183.914
			c25.353,25.353,58.651,38.025,91.957,38.025c33.298,0,66.604-12.681,91.957-38.025l126.022-126.022
			C398.665,297.233,398.665,214.732,347.959,164.034z"/>
	</g>
</g>
<g>
	<g>
		<path d="M325.029,186.938c-25.259-25.276-62.371-34.646-96.889-24.474c-15.505,4.574-29.748,13.039-41.191,24.474
			c-3.337,3.337-3.337,8.73,0,12.066c3.337,3.337,8.73,3.337,12.066,0c9.429-9.421,21.172-16.401,33.955-20.173
			c28.502-8.405,59.154-0.666,80.001,20.173c31.412,31.42,31.412,82.536,0,113.956L186.958,438.983
			c-31.42,31.412-82.536,31.412-113.956,0c-15.147-15.155-23.493-35.38-23.493-56.978c0-21.598,8.346-41.831,23.493-56.978
			l67.474-67.474c3.337-3.337,3.337-8.73,0-12.066c-3.337-3.337-8.73-3.337-12.066,0L60.935,312.96
			c-18.373,18.373-28.493,42.889-28.493,69.044s10.121,50.672,28.493,69.044c19.038,19.038,44.041,28.553,69.044,28.553
			c25.003,0,50.006-9.515,69.044-28.553l126.005-126.022C363.097,286.959,363.097,225.006,325.029,186.938z"/>
	</g>
</g>
<g>
</g>
<g>
</g>
<g>
</g>
<g>
</g>
<g>
</g>
<g>
</g>
<g>
</g>
<g>
</g>
<g>
</g>
<g>
</g>
<g>
</g>
<g>
</g>
<g>
</g>
<g>
</g>
<g>
</g>
</svg>
